<svg width="891" height="490" viewBox="0 0 891 490" fill="none" xmlns="http://www.w3.org/2000/svg">
<g clip-path="url(#clip0)">
<path d="M886.548 0.398865H182.972V451H886.548V0.398865Z" fill="#E6E6E6"/>
<path d="M499.187 60.9072H245.187V321.907H499.187V60.9072Z" fill="white"/>
<path d="M848.187 65.9688H594.187V382.969H848.187V65.9688Z" fill="white"/>
<path d="M844.802 483.762C869.931 483.762 890.302 480.851 890.302 477.262C890.302 473.672 869.931 470.762 844.802 470.762C819.673 470.762 799.302 473.672 799.302 477.262C799.302 480.851 819.673 483.762 844.802 483.762Z" fill="#E6E6E6"/>
<path d="M389.9 483.907C415.029 483.907 435.4 480.997 435.4 477.407C435.4 473.817 415.029 470.907 389.9 470.907C364.771 470.907 344.4 473.817 344.4 477.407C344.4 480.997 364.771 483.907 389.9 483.907Z" fill="#E6E6E6"/>
<path d="M104.425 475.907C162.097 475.907 208.85 473.669 208.85 470.907C208.85 468.146 162.097 465.907 104.425 465.907C46.7527 465.907 0 468.146 0 470.907C0 473.669 46.7527 475.907 104.425 475.907Z" fill="#E6E6E6"/>
<path d="M886.248 0H182.672V29.8905H886.248V0Z" fill="url(#paint0_linear)"/>
<path d="M204.884 20.8215C207.944 20.8215 210.424 18.3412 210.424 15.2816C210.424 12.2219 207.944 9.74161 204.884 9.74161C201.825 9.74161 199.344 12.2219 199.344 15.2816C199.344 18.3412 201.825 20.8215 204.884 20.8215Z" fill="#E6E6E6"/>
<path d="M225.913 20.8215C228.972 20.8215 231.453 18.3412 231.453 15.2816C231.453 12.2219 228.972 9.74161 225.913 9.74161C222.853 9.74161 220.373 12.2219 220.373 15.2816C220.373 18.3412 222.853 20.8215 225.913 20.8215Z" fill="#E6E6E6"/>
<path d="M246.941 20.8215C250.001 20.8215 252.481 18.3412 252.481 15.2816C252.481 12.2219 250.001 9.74161 246.941 9.74161C243.881 9.74161 241.401 12.2219 241.401 15.2816C241.401 18.3412 243.881 20.8215 246.941 20.8215Z" fill="#E6E6E6"/>
<path d="M792.187 150.999H790.648V108.848C790.648 105.644 790.017 102.472 788.791 99.5123C787.565 96.5525 785.768 93.8632 783.503 91.5978C781.238 89.3325 778.548 87.5355 775.589 86.3095C772.629 85.0835 769.456 84.4525 766.253 84.4525H676.951C673.747 84.4525 670.575 85.0835 667.615 86.3095C664.655 87.5355 661.966 89.3325 659.701 91.5978C657.435 93.8632 655.638 96.5525 654.412 99.5123C653.186 102.472 652.555 105.644 652.555 108.848V340.089C652.555 343.293 653.186 346.465 654.412 349.425C655.638 352.385 657.435 355.074 659.701 357.34C661.966 359.605 664.655 361.402 667.615 362.628C670.575 363.854 673.747 364.485 676.951 364.485H766.253C769.456 364.485 772.629 363.854 775.589 362.628C778.548 361.402 781.238 359.605 783.503 357.34C785.768 355.074 787.565 352.385 788.791 349.425C790.017 346.465 790.648 343.293 790.648 340.089V181.002H792.187V150.999Z" fill="#3F3D56"/>
<path d="M766.237 90.7994H754.58C755.116 92.1136 755.321 93.5396 755.176 94.9515C755.031 96.3635 754.541 97.7182 753.75 98.8963C752.958 100.074 751.889 101.04 750.636 101.707C749.383 102.375 747.986 102.724 746.566 102.724H695.407C693.987 102.724 692.59 102.375 691.337 101.707C690.084 101.04 689.015 100.074 688.223 98.8962C687.432 97.7182 686.942 96.3635 686.797 94.9515C686.652 93.5396 686.857 92.1136 687.393 90.7994H676.505C674.113 90.7994 671.744 91.2706 669.534 92.1862C667.323 93.1017 665.315 94.4437 663.623 96.1354C661.931 97.8271 660.589 99.8355 659.674 102.046C658.758 104.256 658.287 106.625 658.287 109.018V339.92C658.287 342.312 658.758 344.681 659.674 346.892C660.589 349.102 661.931 351.11 663.623 352.802C665.315 354.494 667.323 355.836 669.534 356.751C671.744 357.667 674.113 358.138 676.505 358.138H766.237C768.63 358.138 770.999 357.667 773.209 356.751C775.419 355.836 777.428 354.494 779.119 352.802C780.811 351.11 782.153 349.102 783.069 346.892C783.984 344.681 784.456 342.312 784.456 339.92V109.018C784.455 104.186 782.536 99.552 779.119 96.1354C775.703 92.7188 771.069 90.7994 766.237 90.7994V90.7994Z" fill="white"/>
<path d="M460.635 225.776H284.09V233.828H460.635V225.776Z" fill="#E6E6E6"/>
<path d="M460.635 251.776H284.09V259.828H460.635V251.776Z" fill="url(#paint1_linear)"/>
<path d="M460.635 277.776H284.09V285.828H460.635V277.776Z" fill="#E6E6E6"/>
<path d="M773.903 243.346H670.839V251.398H773.903V243.346Z" fill="#E6E6E6"/>
<path d="M773.903 268.346H670.839V276.398H773.903V268.346Z" fill="#E6E6E6"/>
<path d="M773.903 293.346H670.839V301.398H773.903V293.346Z" fill="#E6E6E6"/>
<path d="M784.679 418.391V401.213H767.502V418.391H784.679Z" fill="#3F3D56"/>
<path d="M757.004 418.391V401.213H739.827V418.391H757.004Z" fill="url(#paint2_linear)"/>
<path d="M729.33 418.391V401.213H712.153V418.391H729.33Z" fill="#3F3D56"/>
<path d="M701.655 418.391V401.213H684.478V418.391H701.655Z" fill="#3F3D56"/>
<path d="M673.981 418.391V401.213H656.803V418.391H673.981Z" fill="#3F3D56"/>
<path d="M750 138.99H692.742V196.248H750V138.99Z" fill="url(#paint3_linear)"/>
<path d="M349.605 275.593L348.864 277.075L346.641 265.958C346.641 265.958 343.676 254.1 349.605 254.1C355.534 254.1 354.052 265.958 354.052 265.958V274.111L349.605 275.593Z" fill="#A0616A"/>
<path d="M446.846 274.075L447.588 275.557L449.811 264.44C449.811 264.44 452.776 252.582 446.846 252.582C440.917 252.582 442.4 264.44 442.4 264.44V272.593L446.846 274.075Z" fill="#A0616A"/>
<path d="M382.215 358.94L373.322 413.784L377.768 467.145L388.144 462.699L386.662 422.677L397.038 390.808L399.261 428.606L394.815 467.886L408.155 469.369L417.79 388.585L417.049 361.163L382.215 358.94Z" fill="#2F2E41"/>
<path d="M382.215 460.475L377.027 468.628V486.844C377.027 487.369 377.214 487.876 377.554 488.276C377.894 488.675 378.366 488.941 378.884 489.024C381.426 489.442 385.854 489.738 387.403 487.156C389.627 483.45 388.144 475.298 388.144 475.298C388.144 475.298 391.109 469.369 389.627 464.922C388.144 460.475 386.662 459.734 386.662 459.734L382.215 460.475Z" fill="#2F2E41"/>
<path d="M404.449 467.887L405.932 470.11C405.932 470.11 408.155 472.333 406.673 473.816C405.585 474.968 404.593 476.207 403.708 477.521C403.708 477.521 395.556 479.745 395.556 476.78V467.145L404.449 467.887Z" fill="#2F2E41"/>
<path d="M401.778 298.619C407.204 298.619 411.603 294.221 411.603 288.795C411.603 283.369 407.204 278.971 401.778 278.971C396.352 278.971 391.954 283.369 391.954 288.795C391.954 294.221 396.352 298.619 401.778 298.619Z" fill="#A0616A"/>
<path d="M395.185 291.867L394.444 305.949L407.784 306.69L407.043 292.608L395.185 291.867Z" fill="#A0616A"/>
<path d="M409.637 307.06L407.533 301.921C407.533 301.921 397.779 298.167 394.815 301.872L393.332 306.319L381.474 303.355L374.804 318.177L380.733 360.422C380.733 360.422 396.297 380.433 417.049 361.163L422.978 321.142L418.531 305.578L409.637 307.06Z" fill="#D0CDE1"/>
<path d="M417.049 308.543L418.531 305.578L433.354 296.684L442.4 269.907L449.4 272.907L441.506 304.837L420.013 324.847L417.049 308.543Z" fill="#D0CDE1"/>
<path d="M382.956 304.837L381.474 303.355L365.91 293.72L354.793 271.486L345.9 274.45L355.534 301.872L379.251 321.142L382.956 304.837Z" fill="#D0CDE1"/>
<path d="M409.07 273.75L410.676 272.947L408.267 272.144V271.341C408.267 271.341 396.22 266.522 394.613 274.553C392.54 277.339 391.421 280.719 391.421 284.191C391.421 287.664 392.54 291.043 394.613 293.829V296.238L407.464 297.845L409.07 293.026C409.07 293.026 417.101 278.569 409.07 273.75Z" fill="#2F2E41"/>
<path d="M115.09 359.81L112.234 361.237C112.234 361.237 100.813 366.472 104.144 369.328C107.475 372.183 116.517 366.472 116.517 366.472L118.421 364.093L115.09 359.81Z" fill="#FFB8B8"/>
<path d="M198.633 359.099L189.807 418.346L176.481 459.749L169.343 456.418L176.005 399.786L156.969 383.605L158.397 359.81L198.633 359.099Z" fill="#2F2E41"/>
<path d="M168.391 457.846C168.391 457.846 176.481 453.563 176.957 459.749L176.005 465.936C176.005 465.936 178.861 476.882 169.343 474.502C159.825 472.123 166.487 464.984 166.487 464.984L168.391 457.846Z" fill="#2F2E41"/>
<path d="M163.156 378.37L156.969 383.605C156.969 383.605 156.969 415.966 161.252 420.725C165.535 425.484 192.662 449.755 193.614 450.707C194.566 451.659 198.849 441.189 198.849 441.189L173.15 411.207L175.054 392.647L163.156 378.37Z" fill="#2F2E41"/>
<path d="M195.993 439.761C195.993 439.761 203.608 438.334 203.608 443.569C203.703 447.707 204.02 451.838 204.56 455.942C204.56 455.942 206.463 472.599 200.276 470.219C194.09 467.84 191.71 451.183 191.71 451.183C192.286 449.799 193.285 448.632 194.566 447.852C196.469 446.9 195.993 439.761 195.993 439.761Z" fill="#2F2E41"/>
<path d="M172.198 288.424L173.626 306.033L169.819 312.695L159.349 302.701L158.397 289.376L172.198 288.424Z" fill="#FFB8B8"/>
<path d="M163.632 294.135C169.94 294.135 175.054 289.021 175.054 282.713C175.054 276.405 169.94 271.292 163.632 271.292C157.324 271.292 152.21 276.405 152.21 282.713C152.21 289.021 157.324 294.135 163.632 294.135Z" fill="#FFB8B8"/>
<path d="M168.391 305.557L173.15 291.756L181.716 301.274L197.421 361.713L185.523 368.852L180.289 361.237L179.337 371.231L156.017 366.472L154.114 302.701L158.87 296.002L168.391 305.557Z" fill="#D0CDE1"/>
<path d="M161.728 373.135L158.873 296.039L152.686 300.798L141.264 308.412L148.879 335.539L151.258 364.093L161.728 373.135Z" fill="#2F2E41"/>
<path d="M144.596 308.888L141.264 308.412L131.746 336.49L112.71 360.286L119.849 367.9L141.74 346.484L149.831 328.876L144.596 308.888Z" fill="#2F2E41"/>
<path d="M196.568 360.245L195.919 363.371C195.919 363.371 192.948 375.579 197.254 374.734C201.559 373.89 202.682 363.254 202.682 363.254L201.994 360.286L196.568 360.245Z" fill="#FFB8B8"/>
<path d="M172.406 290.983L195.993 300.322L193.138 328.876L198.849 360.286L193.138 366.472L172.022 295.028L172.406 290.983Z" fill="#2F2E41"/>
<path d="M164.23 263.531L167.582 261.854V263.531L169.818 262.413V265.207C169.818 265.207 178.199 271.353 176.523 278.617C174.846 285.881 174.846 286.44 174.846 286.44C174.846 286.44 172.727 272.626 164.346 274.861C155.964 277.096 155.29 277.5 153.054 283.646L152.448 286.283C152.448 286.283 142.997 264.648 164.23 263.531Z" fill="#2F2E41"/>
<path d="M192.662 300.322H196.469L202.656 333.635V362.665L195.042 361.237L188.855 317.454L192.662 300.322Z" fill="#2F2E41"/>
<path d="M143.856 370.772H3.53503V468.283H143.856V370.772Z" fill="url(#paint4_linear)"/>
<path d="M73.6955 389.798C67.8157 389.798 62.0679 391.542 57.179 394.808C52.2901 398.075 48.4796 402.718 46.2295 408.15C43.9794 413.583 43.3906 419.56 44.5377 425.327C45.6848 431.094 48.5163 436.391 52.6739 440.549C56.8316 444.706 62.1288 447.538 67.8957 448.685C73.6625 449.832 79.64 449.243 85.0723 446.993C90.5046 444.743 95.1476 440.933 98.4143 436.044C101.681 431.155 103.425 425.407 103.425 419.527C103.401 411.65 100.262 404.101 94.6916 398.531C89.1213 392.961 81.573 389.821 73.6955 389.798V389.798ZM73.6955 398.717C75.4595 398.717 77.1838 399.24 78.6505 400.22C80.1171 401.2 81.2603 402.593 81.9353 404.223C82.6104 405.852 82.787 407.645 82.4428 409.376C82.0987 411.106 81.2493 412.695 80.002 413.942C78.7547 415.189 77.1655 416.039 75.4355 416.383C73.7054 416.727 71.9121 416.55 70.2825 415.875C68.6528 415.2 67.2599 414.057 66.2799 412.591C65.2999 411.124 64.7768 409.4 64.7768 407.636C64.7847 405.273 65.7269 403.009 67.3977 401.338C69.0686 399.667 71.3325 398.725 73.6955 398.717V398.717ZM73.6955 441.652C70.1723 441.636 66.7062 440.761 63.5978 439.102C60.4895 437.443 57.8327 435.051 55.8581 432.133C56.001 426.188 67.7497 422.915 73.6955 422.915C79.6413 422.915 91.39 426.188 91.5329 432.133C89.556 435.049 86.8988 437.44 83.791 439.098C80.6831 440.757 77.2181 441.633 73.6955 441.652V441.652Z" fill="white"/>
<path d="M460.187 90.9072H284.187V191.907H460.187V90.9072Z" fill="url(#paint5_linear)"/>
<path d="M808.202 291.234L809.018 285.974C809.018 285.974 813.771 275.169 810.014 274.586C806.257 274.004 803.123 284.29 803.123 284.29L804.498 295.276L808.202 291.234Z" fill="#FFB8B8"/>
<path d="M846.67 321.051L813.089 314.306L809.187 289.847L799.302 289.084L799.785 320.707L828.962 336.004L846.67 321.051Z" fill="#575A89"/>
<path opacity="0.2" d="M846.67 321.051L813.089 314.306L809.187 289.847L799.302 289.084L799.785 320.707L828.962 336.004L846.67 321.051Z" fill="#D0CDE1"/>
<path d="M755.313 284.764H858.377V276.712H755.313V284.764Z" fill="url(#paint6_linear)"/>
<path d="M801.641 289.43L801.648 284.108C801.648 284.108 804.704 272.706 800.902 272.701C797.1 272.696 795.566 283.34 795.566 283.34L798.594 293.989L801.641 289.43Z" fill="#FFB8B8"/>
<path d="M845.353 304.675L849.961 303.552C851.719 303.554 853.455 303.165 855.045 302.414C856.635 301.662 858.037 300.567 859.151 299.207C860.266 297.847 861.063 296.256 861.487 294.55C861.911 292.843 861.95 291.064 861.602 289.341V289.341C861.605 287.305 861.206 285.288 860.43 283.406C859.653 281.524 858.513 279.814 857.075 278.372C855.637 276.931 853.929 275.786 852.049 275.005C850.169 274.223 848.154 273.82 846.118 273.817V273.817C844.082 273.815 842.065 274.213 840.183 274.99C838.301 275.767 836.59 276.907 835.149 278.344C833.707 279.782 832.563 281.49 831.782 283.37C831 285.25 830.596 287.266 830.594 289.302V289.302C829.998 291.376 829.957 293.57 830.475 295.664C830.994 297.759 832.053 299.681 833.548 301.237C835.042 302.794 836.919 303.931 838.991 304.534C841.063 305.137 843.257 305.186 845.353 304.675Z" fill="#2F2E41"/>
<path d="M818.254 381.458L822.005 422.524L828.797 462.833L840.203 462.847L838.732 423.305L832.709 375.393L818.254 381.458Z" fill="#2F2E41"/>
<path d="M830.321 460.554L822.711 465.106C822.711 465.106 810.543 466.612 812.82 470.417C815.096 474.222 841.713 471.974 841.714 470.453C841.716 468.932 840.966 460.567 839.446 460.565L830.321 460.554Z" fill="#2F2E41"/>
<path d="M851.922 377.91C851.922 377.91 851.708 383.781 846.374 392.899L847.099 421.035L874.429 456.047L864.534 464.399L831.124 426.337L822.817 380.703L833.476 370.071L851.922 377.91Z" fill="#2F2E41"/>
<path d="M872.148 456.044C872.148 456.044 881.271 457.576 879.745 461.376C878.22 465.176 874.396 482.66 864.514 480.367C864.514 480.367 859.951 480.361 861.476 477.321C862.392 475.493 863.41 473.717 864.524 472.003L864.537 462.117L872.148 456.044Z" fill="#2F2E41"/>
<path d="M840.415 305.447C846.714 305.447 851.821 300.341 851.821 294.041C851.821 287.742 846.714 282.636 840.415 282.636C834.116 282.636 829.009 287.742 829.009 294.041C829.009 300.341 834.116 305.447 840.415 305.447Z" fill="#FFB8B8"/>
<path d="M845.728 301.652L845.712 314.578L833.546 314.563L835.083 301.639L845.728 301.652Z" fill="#FFB8B8"/>
<path d="M830.51 309.997L834.197 309.091L845.718 310.016C845.718 310.016 851.793 316.107 851.031 317.627C850.269 319.147 846.42 356.401 846.42 356.401L853.23 383.023L828.896 384.513L816.732 382.977L819.073 335.076C819.073 335.076 813.766 322.142 820.615 318.349C824.483 316.32 827.86 313.469 830.51 309.997V309.997Z" fill="#D0CDE1"/>
<path d="M844.193 313.056L809.978 311.492L802.404 287.911L792.518 288.658L797.801 319.841L828.964 330.526L844.193 313.056Z" fill="#D0CDE1"/>
<path d="M862.432 285.638C866.497 285.638 869.791 282.344 869.791 278.279C869.791 274.215 866.497 270.921 862.432 270.921C858.368 270.921 855.074 274.215 855.074 278.279C855.074 282.344 858.368 285.638 862.432 285.638Z" fill="#2F2E41"/>
<path d="M855.643 274.323C855.643 273.235 855.886 272.16 856.352 271.177C856.819 270.193 857.498 269.325 858.34 268.636C859.183 267.947 860.168 267.453 861.224 267.191C862.281 266.928 863.382 266.904 864.45 267.119C863.508 266.674 862.483 266.434 861.442 266.415C860.4 266.396 859.367 266.598 858.41 267.008C857.453 267.418 856.593 268.027 855.889 268.794C855.185 269.561 854.651 270.469 854.324 271.458C853.997 272.447 853.883 273.493 853.991 274.529C854.099 275.565 854.425 276.566 854.949 277.466C855.472 278.367 856.181 279.145 857.028 279.751C857.875 280.357 858.841 280.776 859.862 280.981C858.599 280.386 857.532 279.444 856.785 278.265C856.038 277.086 855.641 275.719 855.643 274.323V274.323Z" fill="#2F2E41"/>
<path d="M849.33 278.497L839.409 276.67L831.779 281.452C829.903 282.628 828.404 284.317 827.459 286.318C826.514 288.32 826.163 290.551 826.448 292.747L834.089 290.81L835.8 286.519L837.838 289.86L846.105 304.314L854.475 299.762L859.808 291.404L849.33 278.497Z" fill="#2F2E41"/>
<path d="M284.685 90.0401L283.689 91.7744L459.689 192.774L460.685 191.04L284.685 90.0401Z" fill="white"/>
<path d="M459.693 90.0469L283.686 191.033L284.681 192.768L460.688 91.7812L459.693 90.0469Z" fill="white"/>
<path d="M693.894 138.2L692.48 139.614L749.48 196.614L750.894 195.2L693.894 138.2Z" fill="white"/>
<path d="M749.48 138.2L692.48 195.2L693.894 196.614L750.894 139.614L749.48 138.2Z" fill="white"/>
</g>
<defs>
<linearGradient id="paint0_linear" x1="886" y1="5.00001" x2="232" y2="22.0001" gradientUnits="userSpaceOnUse">
<stop stop-color="#44BACA"/>
<stop offset="0.292111" stop-color="#3FC6CA" stop-opacity="0.52"/>
<stop offset="1" stop-color="#7E27CE"/>
</linearGradient>
<linearGradient id="paint1_linear" x1="469" y1="252" x2="277" y2="256" gradientUnits="userSpaceOnUse">
<stop offset="0.027866" stop-color="#3FC6CA"/>
<stop offset="1" stop-color="#7E27CE" stop-opacity="0.65"/>
</linearGradient>
<linearGradient id="paint2_linear" x1="783" y1="354.5" x2="712.5" y2="469" gradientUnits="userSpaceOnUse">
<stop stop-color="#3FC6CA" stop-opacity="0.9"/>
<stop offset="1" stop-color="#7E27CE" stop-opacity="0.81"/>
</linearGradient>
<linearGradient id="paint3_linear" x1="762.5" y1="127" x2="682" y2="206.5" gradientUnits="userSpaceOnUse">
<stop stop-color="#3FC6CA" stop-opacity="0.69"/>
<stop offset="1" stop-color="#7E27CE" stop-opacity="0.8"/>
</linearGradient>
<linearGradient id="paint4_linear" x1="136" y1="379" x2="4.00002" y2="459" gradientUnits="userSpaceOnUse">
<stop stop-color="#3FC6CA" stop-opacity="0.76"/>
<stop offset="0.234375" stop-color="#4EA0CB" stop-opacity="0.82"/>
<stop offset="0.97659" stop-color="#7E27CE" stop-opacity="0.98"/>
</linearGradient>
<linearGradient id="paint5_linear" x1="466" y1="86" x2="273" y2="186" gradientUnits="userSpaceOnUse">
<stop stop-color="#3FC6CA" stop-opacity="0.66"/>
<stop offset="1" stop-color="#7E27CE" stop-opacity="0.81"/>
</linearGradient>
<linearGradient id="paint6_linear" x1="858" y1="277" x2="755" y2="277" gradientUnits="userSpaceOnUse">
<stop stop-color="#3FC6CA" stop-opacity="0.64"/>
<stop offset="1" stop-color="#7E27CE" stop-opacity="0.85"/>
</linearGradient>
<clipPath id="clip0">
<rect width="890.302" height="489.3" fill="white"/>
</clipPath>
</defs>
</svg>
